<?xml version="1.0" encoding="UTF-8"?>
<mxfile host="app.diagrams.net" agent="Mozilla/5.0 (X11; Linux x86_64; rv:133.0) Gecko/20100101 Firefox/133.0" version="28.1.0">
  <diagram name="Page-1" id="_6MGRB45eKsqoxzJMkRX">
    <mxGraphModel dx="1685" dy="1060" grid="1" gridSize="10" guides="1" tooltips="1" connect="1" arrows="1" fold="1" page="1" pageScale="1" pageWidth="1169" pageHeight="827" math="0" shadow="0">
      <root>
        <mxCell id="0" />
        <mxCell id="1" parent="0" />
        <mxCell id="2" style="edgeStyle=orthogonalEdgeStyle;rounded=1;orthogonalLoop=1;jettySize=auto;fontSize=16;strokeColor=#828282;fontColor=#404040;strokeWidth=1;endFill=0;endSize=14;startSize=14;dashed=1;startArrow=classic;startFill=1;jumpStyle=arc;jumpSize=10;exitX=0;exitY=0.5;exitDx=0;exitDy=0;exitPerimeter=0;entryX=1;entryY=0.5;entryDx=0;entryDy=0;entryPerimeter=0;endArrow=none;" edge="1" parent="1">
          <mxGeometry relative="1" as="geometry">
            <mxPoint x="615" y="470" as="sourcePoint" />
            <mxPoint x="480" y="635" as="targetPoint" />
            <Array as="points">
              <mxPoint x="520" y="470" />
              <mxPoint x="520" y="635" />
            </Array>
          </mxGeometry>
        </mxCell>
        <mxCell id="3" value="[HTTP]" style="edgeLabel;html=1;align=center;verticalAlign=middle;resizable=0;points=[];fontSize=16;" vertex="1" connectable="0" parent="2">
          <mxGeometry x="0.0729" relative="1" as="geometry">
            <mxPoint x="-6" y="1" as="offset" />
          </mxGeometry>
        </mxCell>
        <mxCell id="4" style="edgeStyle=orthogonalEdgeStyle;rounded=1;orthogonalLoop=1;jettySize=auto;fontSize=16;strokeColor=#828282;fontColor=#404040;strokeWidth=1;endFill=0;endSize=14;startSize=14;dashed=1;startArrow=classic;startFill=1;jumpStyle=arc;jumpSize=10;exitX=0;exitY=0.5;exitDx=0;exitDy=0;exitPerimeter=0;entryX=1;entryY=0.5;entryDx=0;entryDy=0;entryPerimeter=0;endArrow=none;" edge="1" parent="1">
          <mxGeometry relative="1" as="geometry">
            <mxPoint x="615" y="470" as="sourcePoint" />
            <mxPoint x="480" y="635" as="targetPoint" />
            <Array as="points">
              <mxPoint x="520" y="470" />
              <mxPoint x="520" y="635" />
            </Array>
          </mxGeometry>
        </mxCell>
        <mxCell id="5" value="[HTTP]" style="edgeLabel;html=1;align=center;verticalAlign=middle;resizable=0;points=[];fontSize=16;" vertex="1" connectable="0" parent="4">
          <mxGeometry x="0.0729" relative="1" as="geometry">
            <mxPoint x="-6" y="1" as="offset" />
          </mxGeometry>
        </mxCell>
        <mxCell id="6" value="Text" style="edgeLabel;html=1;align=center;verticalAlign=middle;resizable=0;points=[];" vertex="1" connectable="0" parent="4">
          <mxGeometry x="-0.68" y="-2" relative="1" as="geometry">
            <mxPoint as="offset" />
          </mxGeometry>
        </mxCell>
        <mxCell id="7" style="edgeStyle=orthogonalEdgeStyle;rounded=1;orthogonalLoop=1;jettySize=auto;fontSize=16;strokeColor=#828282;fontColor=#404040;strokeWidth=1;endFill=0;endSize=14;startSize=14;dashed=1;startArrow=classic;startFill=1;jumpStyle=arc;jumpSize=10;exitX=0;exitY=0.5;exitDx=0;exitDy=0;exitPerimeter=0;entryX=1;entryY=0.5;entryDx=0;entryDy=0;entryPerimeter=0;endArrow=none;" edge="1" parent="1">
          <mxGeometry relative="1" as="geometry">
            <mxPoint x="525" y="390" as="sourcePoint" />
            <mxPoint x="390" y="555" as="targetPoint" />
            <Array as="points">
              <mxPoint x="430" y="390" />
              <mxPoint x="430" y="555" />
            </Array>
          </mxGeometry>
        </mxCell>
        <mxCell id="8" value="[HTTP]" style="edgeLabel;html=1;align=center;verticalAlign=middle;resizable=0;points=[];fontSize=16;" vertex="1" connectable="0" parent="7">
          <mxGeometry x="0.0729" relative="1" as="geometry">
            <mxPoint x="-6" y="1" as="offset" />
          </mxGeometry>
        </mxCell>
        <mxCell id="9" style="edgeStyle=orthogonalEdgeStyle;rounded=1;orthogonalLoop=1;jettySize=auto;fontSize=16;strokeColor=#828282;fontColor=#404040;strokeWidth=1;endFill=0;endSize=14;startSize=14;dashed=1;startArrow=classic;startFill=1;jumpStyle=arc;jumpSize=10;exitX=0;exitY=0.5;exitDx=0;exitDy=0;exitPerimeter=0;entryX=1;entryY=0.5;entryDx=0;entryDy=0;entryPerimeter=0;endArrow=none;" edge="1" parent="1">
          <mxGeometry relative="1" as="geometry">
            <mxPoint x="515" y="220" as="sourcePoint" />
            <mxPoint x="380" y="385" as="targetPoint" />
            <Array as="points">
              <mxPoint x="420" y="220" />
              <mxPoint x="420" y="385" />
            </Array>
          </mxGeometry>
        </mxCell>
        <mxCell id="10" value="[HTTP]" style="edgeLabel;html=1;align=center;verticalAlign=middle;resizable=0;points=[];fontSize=16;" vertex="1" connectable="0" parent="9">
          <mxGeometry x="0.0729" relative="1" as="geometry">
            <mxPoint x="-6" y="1" as="offset" />
          </mxGeometry>
        </mxCell>
        <mxCell id="11" style="edgeStyle=orthogonalEdgeStyle;rounded=1;orthogonalLoop=1;jettySize=auto;fontSize=16;strokeColor=#828282;fontColor=#404040;strokeWidth=1;endFill=0;endSize=14;startSize=14;dashed=1;startArrow=classic;startFill=1;jumpStyle=arc;jumpSize=10;exitX=0;exitY=0.5;exitDx=0;exitDy=0;exitPerimeter=0;entryX=1;entryY=0.5;entryDx=0;entryDy=0;entryPerimeter=0;endArrow=none;" edge="1" parent="1">
          <mxGeometry relative="1" as="geometry">
            <mxPoint x="875" y="280" as="sourcePoint" />
            <mxPoint x="740" y="445" as="targetPoint" />
            <Array as="points">
              <mxPoint x="780" y="280" />
              <mxPoint x="780" y="445" />
            </Array>
          </mxGeometry>
        </mxCell>
        <mxCell id="12" value="[HTTP]" style="edgeLabel;html=1;align=center;verticalAlign=middle;resizable=0;points=[];fontSize=16;" vertex="1" connectable="0" parent="11">
          <mxGeometry x="0.0729" relative="1" as="geometry">
            <mxPoint x="-6" y="1" as="offset" />
          </mxGeometry>
        </mxCell>
        <mxCell id="13" style="edgeStyle=orthogonalEdgeStyle;rounded=1;orthogonalLoop=1;jettySize=auto;fontSize=16;strokeColor=#828282;fontColor=#404040;strokeWidth=1;endFill=0;endSize=14;startSize=14;dashed=1;startArrow=classic;startFill=1;jumpStyle=arc;jumpSize=10;exitX=0;exitY=0.5;exitDx=0;exitDy=0;exitPerimeter=0;endArrow=none;" edge="1" parent="1">
          <mxGeometry relative="1" as="geometry">
            <mxPoint x="1015" y="570" as="sourcePoint" />
            <mxPoint x="840" y="550" as="targetPoint" />
            <Array as="points">
              <mxPoint x="920" y="570" />
              <mxPoint x="920" y="735" />
            </Array>
          </mxGeometry>
        </mxCell>
        <mxCell id="14" value="[HTTP]" style="edgeLabel;html=1;align=center;verticalAlign=middle;resizable=0;points=[];fontSize=16;" vertex="1" connectable="0" parent="13">
          <mxGeometry x="0.0729" relative="1" as="geometry">
            <mxPoint x="-6" y="1" as="offset" />
          </mxGeometry>
        </mxCell>
        <mxCell id="15" style="edgeStyle=orthogonalEdgeStyle;rounded=1;orthogonalLoop=1;jettySize=auto;fontSize=16;strokeColor=#828282;fontColor=#404040;strokeWidth=1;endFill=0;endSize=14;startSize=14;dashed=1;startArrow=classic;startFill=1;jumpStyle=arc;jumpSize=10;exitX=0;exitY=0.5;exitDx=0;exitDy=0;exitPerimeter=0;entryX=1;entryY=0.5;entryDx=0;entryDy=0;entryPerimeter=0;endArrow=none;" edge="1" parent="1">
          <mxGeometry relative="1" as="geometry">
            <mxPoint x="1125" y="430" as="sourcePoint" />
            <mxPoint x="990" y="595" as="targetPoint" />
            <Array as="points">
              <mxPoint x="1030" y="430" />
              <mxPoint x="1030" y="595" />
            </Array>
          </mxGeometry>
        </mxCell>
        <mxCell id="16" value="[HTTP]" style="edgeLabel;html=1;align=center;verticalAlign=middle;resizable=0;points=[];fontSize=16;" vertex="1" connectable="0" parent="15">
          <mxGeometry x="0.0729" relative="1" as="geometry">
            <mxPoint x="-6" y="1" as="offset" />
          </mxGeometry>
        </mxCell>
        <object placeholders="1" c4Type="Relationship" id="17">
          <mxCell style="endArrow=blockThin;html=1;fontSize=10;fontColor=#404040;strokeWidth=1;endFill=1;strokeColor=#828282;elbow=vertical;metaEdit=1;endSize=14;startSize=14;jumpStyle=arc;jumpSize=16;rounded=1;edgeStyle=orthogonalEdgeStyle;curved=0;exitX=0.5;exitY=1;exitDx=0;exitDy=0;exitPerimeter=0;startArrow=blockThin;startFill=1;" edge="1" parent="1">
            <mxGeometry width="240" relative="1" as="geometry">
              <mxPoint x="590" y="510" as="sourcePoint" />
              <mxPoint x="590" y="590" as="targetPoint" />
            </mxGeometry>
          </mxCell>
        </object>
        <object placeholders="1" c4Type="Relationship" id="18">
          <mxCell style="endArrow=blockThin;html=1;fontSize=10;fontColor=#404040;strokeWidth=1;endFill=1;strokeColor=#828282;elbow=vertical;metaEdit=1;endSize=14;startSize=14;jumpStyle=arc;jumpSize=16;rounded=1;edgeStyle=orthogonalEdgeStyle;curved=0;exitX=0.5;exitY=1;exitDx=0;exitDy=0;exitPerimeter=0;startArrow=blockThin;startFill=1;" edge="1" parent="1">
            <mxGeometry width="240" relative="1" as="geometry">
              <mxPoint x="700" y="520" as="sourcePoint" />
              <mxPoint x="700" y="600" as="targetPoint" />
            </mxGeometry>
          </mxCell>
        </object>
        <mxCell id="19" value="выарврп" style="edgeLabel;html=1;align=center;verticalAlign=middle;resizable=0;points=[];" vertex="1" connectable="0" parent="18">
          <mxGeometry x="-0.075" y="1" relative="1" as="geometry">
            <mxPoint as="offset" />
          </mxGeometry>
        </mxCell>
        <mxCell id="20" value="Text" style="edgeLabel;html=1;align=center;verticalAlign=middle;resizable=0;points=[];" vertex="1" connectable="0" parent="18">
          <mxGeometry x="-0.625" relative="1" as="geometry">
            <mxPoint as="offset" />
          </mxGeometry>
        </mxCell>
      </root>
    </mxGraphModel>
  </diagram>
</mxfile>
